<?xml version="1.0" standalone="no"?>
<!DOCTYPE svg PUBLIC "-//W3C//DTD SVG 20010904//EN"
 "http://www.w3.org/TR/2001/REC-SVG-20010904/DTD/svg10.dtd">
<svg version="1.0" xmlns="http://www.w3.org/2000/svg"
 width="251.000000pt" height="251.000000pt" viewBox="0 0 251.000000 251.000000"
 preserveAspectRatio="xMidYMid meet">
<metadata>
Created by potrace 1.14, written by Peter Selinger 2001-2017
</metadata>
<g transform="translate(0.000000,251.000000) scale(0.100000,-0.100000)"
fill="#000000" stroke="none">
<path d="M1282 2433 c-7 -3 -21 -25 -32 -49 -22 -48 -32 -53 -52 -26 -22 29
-92 61 -146 67 -51 5 -64 -1 -69 -34 -3 -24 -19 -32 -44 -23 -33 12 -131 14
-148 3 -14 -9 -20 -123 -7 -151 4 -11 -4 -21 -29 -34 -54 -29 -85 -65 -82 -94
1 -16 -5 -29 -18 -36 -11 -6 -42 -32 -68 -58 -53 -51 -57 -72 -22 -124 22 -34
32 -44 63 -66 l23 -15 -44 -44 c-137 -137 -228 -326 -253 -524 -7 -51 -6 -192
1 -225 10 -48 19 -95 20 -100 7 -40 75 -203 87 -208 4 -2 8 -9 8 -15 0 -15 71
-109 126 -169 56 -61 166 -142 244 -179 100 -48 139 -62 250 -85 42 -9 233
-11 270 -3 19 4 51 10 71 13 52 8 175 53 239 88 100 55 202 141 270 228 19 25
40 50 46 57 30 31 116 230 128 295 2 13 7 41 11 62 5 22 8 86 9 143 1 98 2
105 26 123 24 18 24 20 26 182 0 90 -3 171 -8 181 -15 29 -69 20 -80 -13 -4
-11 -11 -5 -24 19 -33 59 -77 103 -122 122 -76 33 -134 40 -169 21 -24 -13
-22 -35 6 -62 9 -9 30 -31 46 -49 l30 -34 -35 8 c-19 4 -44 8 -55 9 -13 2 -21
11 -23 27 -4 27 -29 59 -46 59 -6 0 -20 14 -31 30 -13 19 -29 30 -43 30 -61 0
-86 42 -46 77 l27 23 22 -20 c47 -44 89 -15 128 90 25 68 23 104 -8 116 -8 4
-15 12 -15 20 0 8 -4 14 -10 14 -5 0 -10 6 -10 14 0 16 -26 39 -46 42 -8 1
-28 14 -45 28 -35 30 -30 28 -89 31 -66 3 -134 15 -144 25 -5 5 -9 24 -10 42
-4 67 -69 162 -104 151z m555 -994 c43 -47 50 -79 18 -79 -8 0 -17 11 -21 25
-3 14 -10 25 -14 25 -4 0 -10 8 -14 18 -3 9 -9 23 -12 30 -11 23 16 12 43 -19z"/>
<path d="M489 1775 c-18 -25 -37 -45 -42 -45 -6 0 -8 -3 -4 -6 3 -4 -1 -13
-10 -22 -14 -15 -18 -14 -44 0 -27 16 -29 16 -44 -5 -22 -32 -19 -39 32 -74
46 -32 47 -32 65 -13 10 10 18 24 18 30 0 5 4 10 8 10 7 0 102 124 102 134 0
2 -11 11 -24 20 -24 15 -26 15 -57 -29z"/>
<path d="M360 1551 c0 -5 -8 -26 -17 -47 -9 -22 -17 -41 -18 -44 0 -3 -6 -14
-12 -25 -9 -16 -15 -17 -36 -8 -28 13 -40 5 -50 -32 -5 -17 4 -24 52 -46 l57
-26 18 41 c10 22 25 59 34 81 9 22 22 51 29 64 9 18 9 29 1 38 -12 15 -58 18
-58 4z"/>
<path d="M263 1293 c-12 -2 -20 -10 -18 -16 2 -7 6 -50 9 -95 4 -69 2 -83 -9
-78 -18 6 -31 -13 -26 -39 4 -28 15 -32 64 -26 l42 6 0 60 c0 33 -2 65 -5 70
-3 6 -5 26 -6 45 -1 19 -2 45 -3 58 -1 22 -5 23 -48 15z"/>
<path d="M2161 983 c-6 -32 -13 -69 -15 -83 -2 -14 -7 -42 -11 -62 -6 -31 -4
-38 8 -38 8 0 22 -3 30 -6 13 -5 32 27 28 50 -1 5 4 33 10 63 11 49 15 54 36
50 21 -4 23 -1 23 33 0 22 -5 37 -12 37 -7 0 -29 4 -49 8 l-36 7 -12 -59z"/>
<path d="M270 1000 c-11 -7 -9 -24 9 -90 12 -45 21 -83 19 -84 -2 -1 -13 -6
-25 -12 -20 -8 -21 -11 -8 -42 l14 -32 48 18 c48 18 51 24 39 67 -3 11 -13 52
-22 90 -9 39 -20 74 -25 79 -12 13 -34 16 -49 6z"/>
<path d="M358 732 l-27 -18 49 -76 c41 -65 47 -78 34 -88 -18 -15 -17 -30 1
-54 14 -19 16 -18 55 9 22 15 40 32 40 36 0 5 -23 46 -51 92 -81 129 -71 119
-101 99z"/>
<path d="M2071 700 c-17 -28 -31 -55 -31 -60 0 -6 -4 -10 -10 -10 -5 0 -10 -5
-10 -11 0 -6 -9 -22 -20 -36 -22 -28 -15 -47 20 -56 15 -4 28 10 61 64 40 67
70 87 82 57 6 -14 46 28 47 48 0 10 -81 54 -99 54 -5 0 -23 -23 -40 -50z"/>
<path d="M1884 449 c-43 -44 -81 -82 -83 -84 -5 -6 29 -45 39 -45 4 0 33 27
65 59 56 58 59 59 82 44 13 -9 25 -14 26 -12 1 2 10 14 20 25 18 21 18 23 -10
49 -54 51 -54 51 -139 -36z"/>
<path d="M506 491 c-9 -9 -16 -22 -16 -27 0 -5 30 -31 65 -58 68 -51 72 -55
54 -73 -7 -7 -2 -16 18 -31 l29 -21 20 26 c10 15 25 32 32 39 10 11 3 21 -40
54 -29 22 -65 51 -80 65 -47 41 -63 47 -82 26z"/>
<path d="M726 315 c-15 -23 -15 -25 6 -40 12 -8 26 -15 30 -15 4 0 33 -12 63
-27 45 -21 56 -30 52 -45 -4 -14 2 -22 20 -29 14 -5 30 -8 36 -6 12 4 38 80
29 88 -4 3 -41 20 -82 38 -64 28 -94 41 -131 58 -4 2 -14 -8 -23 -22z"/>
<path d="M1745 331 c-11 -3 -59 -25 -107 -49 -85 -41 -87 -43 -76 -67 14 -32
20 -31 96 5 71 34 92 37 92 15 0 -8 6 -15 14 -15 16 0 66 39 50 40 -6 0 -17
18 -24 40 -7 22 -16 40 -19 39 -3 -1 -15 -4 -26 -8z"/>
<path d="M1509 235 c-3 -2 -16 -7 -30 -9 -13 -2 -24 -5 -24 -6 0 -1 -11 -4
-25 -5 -14 -2 -43 -9 -65 -15 -22 -6 -47 -12 -55 -14 -20 -4 -25 -52 -7 -59 8
-3 48 2 88 12 l74 18 10 -21 c9 -19 23 -25 40 -16 3 1 11 3 18 4 15 1 14 18
-2 74 -12 43 -14 46 -22 37z"/>
<path d="M1014 213 c-6 -2 -8 -17 -6 -33 4 -26 9 -30 36 -32 17 0 45 -2 61 -4
17 -1 40 -2 52 -3 14 -1 23 -8 25 -23 2 -18 10 -23 36 -25 l32 -1 0 54 c0 49
-2 54 -22 55 -125 6 -166 8 -183 12 -11 2 -25 3 -31 0z"/>
</g>
</svg>
