<svg width="224" height="224" xmlns="http://www.w3.org/2000/svg" xmlns:xlink="http://www.w3.org/1999/xlink" xml:space="preserve" overflow="hidden"><defs><clipPath id="clip0"><rect x="75" y="335" width="224" height="224"/></clipPath></defs><g clip-path="url(#clip0)" transform="translate(-75 -335)"><path d="M250 370 124 370 82 423.667 187 528.667 187 528.667 292 423.667ZM146.61 428.333 177.2 499.08 106.453 428.333ZM217.333 428.333 187 498.333 156.667 428.333ZM155.99 419 166.747 384 207.253 384 218.01 419ZM227.39 428.333 267.523 428.333 196.847 499.01ZM270.58 419 227.787 419 217.007 384 243.187 384ZM130.813 384 156.993 384 146.213 419 103.42 419Z" fill="#FF0000"/></g></svg>